<svg width="40" height="40" viewBox="0 0 40 40" fill="none" xmlns="http://www.w3.org/2000/svg">
<path fill-rule="evenodd" clip-rule="evenodd" d="M20 3.3335C10.795 3.3335 3.3333 10.7952 3.3333 20.0002C3.3333 23.0885 4.1883 25.9785 5.6733 28.4485L3.3333 36.6668L11.7533 34.3685C14.1417 35.7235 16.9783 36.6668 20 36.6668C29.205 36.6668 36.6667 29.2052 36.6667 20.0002C36.6667 10.7952 29.205 3.3335 20 3.3335ZM14.7317 12.5002C14.3983 12.5002 13.8683 12.6252 13.415 13.1252C12.9617 13.6252 11.6667 14.8385 11.6667 17.3068C11.6667 19.7752 13.4567 22.1618 13.705 22.4952C13.9533 22.8285 17.065 27.9168 22.0433 29.9168C26.145 31.5702 27.025 31.2202 27.9633 31.1368C28.9017 31.0535 31.0017 29.9235 31.415 28.7518C31.8283 27.5802 31.8283 26.5768 31.7033 26.3668C31.5783 26.1568 31.245 26.0318 30.7533 25.7868C30.2617 25.5418 27.7967 24.3268 27.3433 24.1602C26.89 23.9935 26.5567 23.9102 26.2233 24.4102C25.89 24.9102 24.9317 26.0318 24.64 26.3668C24.3483 26.7018 24.0567 26.7435 23.565 26.4985C23.0733 26.2535 21.4733 25.7235 19.5783 24.0235C18.1067 22.7068 17.1033 21.0885 16.8117 20.5885C16.52 20.0885 16.7817 19.8202 17.0283 19.5768C17.25 19.3568 17.52 19.0018 17.765 18.7102C18.01 18.4185 18.0933 18.2102 18.26 17.8768C18.4267 17.5435 18.3433 17.2518 18.2183 17.0068C18.0933 16.7618 17.12 14.2802 16.7033 13.2985C16.3283 12.3802 15.94 12.4068 15.6483 12.3902C15.3567 12.3735 15.065 12.5002 14.7317 12.5002Z" fill="#FAEADE"/>
</svg>
